# xmcd
#
# Track frame offsets:
#	150
#	17409
#	35676
#	58638
#	76296
#	90397
#
# Disc length: 1649 seconds
#
# Revision: 1
# Processed by: cddbd v1.5.2PL0 Copyright (c) Steve Scherf et al.
# Submitted via: audiograbber 1.83.01
#
DISCID=3a066f06
DTITLE=Travis Meadows - Old Ghosts and Unfinished Business
DYEAR=2013
DGENRE=Country
TTITLE0=Wide Open
TTITLE1=Old Ghosts
TTITLE2=Good Country People
TTITLE3=I Am Missisippi
TTITLE4=Hearts I Leave Behind
TTITLE5=Unfinished Business
EXTD=
EXTT0=
EXTT1=
EXTT2=
EXTT3=
EXTT4=
EXTT5=
PLAYORDER=
